<?xml version="1.0" encoding="utf-8"?>
<!-- Generator: Adobe Illustrator 15.1.0, SVG Export Plug-In . SVG Version: 6.00 Build 0)  -->
<!DOCTYPE svg PUBLIC "-//W3C//DTD SVG 1.1//EN" "http://www.w3.org/Graphics/SVG/1.1/DTD/svg11.dtd">
<svg version="1.1" id="Layer_1" xmlns="http://www.w3.org/2000/svg" xmlns:xlink="http://www.w3.org/1999/xlink" x="0px" y="0px"
	 width="529.703px" height="529.703px" viewBox="0 0 529.703 529.703" enable-background="new 0 0 529.703 529.703"
	 xml:space="preserve">
<g>
	<path fill="#CFD0D2" d="M246.988,3.681c5.226,0,9.667,1.847,10.341,2.141c0.899,0.559,8.613,5.538,10.023,12.493
		c0.008,0.039,0.017,0.077,0.027,0.115c0.023,0.089,2.34,8.973,0.88,15.754c-0.17,0.788,0.15,1.602,0.812,2.062
		c0.343,0.238,0.742,0.358,1.143,0.358c0.373,0,0.746-0.104,1.074-0.313c0.701-0.446,1.702-0.932,2.402-1.149
		c0.482,0.661,1.22,2.449,0.065,6.617l-3.928,7.567c-0.127-0.92-0.881-1.648-1.832-1.72c-0.051-0.003-0.102-0.005-0.151-0.005
		c-0.98,0-1.827,0.717-1.976,1.702c-1.078,7.159-1.333,10.006-1.184,11.324c-0.255,1.809-1.254,9.408-0.877,14.98
		c-0.127,1.438,0.02,6.866,8.618,10.878c0.092,0.042,9.285,4.27,15.935,8.849c4.392,3.024,6.92,3.559,9.849,4.178
		c1.872,0.396,3.993,0.844,7.105,2.116c0.117,0.048,0.262,0.089,0.386,0.114c0.346,0.069,8.518,1.873,13.115,16.996
		c0.014,0.047,0.029,0.093,0.047,0.139c0.047,0.121,4.631,12.205,1.034,20.836c-0.062,0.152-0.107,0.311-0.132,0.474
		c-0.076,0.515-1.83,12.581,1.486,18.899c0.455,1.416,3.943,12.771,3.231,25.371c-0.021,0.367,0.061,0.733,0.234,1.057
		c4.79,8.94,12.391,24.488,12.391,28.185c0.08,4.205,0.42,17.986,1.455,20.894l6.374,21.021c0.229,1.242,1.742,7.037,10.255,8.136
		c1.808,0.968,11.211,6.195,16.496,12.921l2.745,3.568c-0.564-0.095-1.51-0.364-3.016-1.072c-0.214-0.101-0.295-0.146-0.514-0.164
		c-0.225-0.07-1.329-0.509-2.16-2.471c-0.31-0.73-1.021-1.209-1.813-1.22c-0.608-0.009-3.032-0.298-3.774-1.555
		c-0.236-0.4-0.606-0.707-1.045-0.864c-0.139-0.05-0.641-0.213-1.284-0.213c-1.657,0-3.592,1.125-3.592,4.294
		c0,0.052,0.002,0.104,0.006,0.156l2.406,30.713c-0.009,0.052-0.019,0.104-0.029,0.156c-0.303-0.175-0.648-0.27-1.002-0.27
		c-0.214,0-0.432,0.035-0.644,0.107c-0.897,0.304-1.458,1.198-1.342,2.14c0.068,0.56,0.083,1.202,0.052,1.728
		c-0.36-0.316-0.854-0.809-1.499-1.574c-0.387-0.457-0.949-0.71-1.529-0.71c-0.183,0-0.367,0.025-0.548,0.076
		c-0.757,0.217-1.317,0.856-1.431,1.635c-0.019,0.127-0.063,0.309-0.12,0.486c-0.201-0.194-0.465-0.485-0.791-0.918l-2.229-3.233
		c-0.382-0.555-0.977-0.951-1.637-0.951c-0.053,0-0.105,0.003-0.159,0.008c-0.607,0.06-1.118,0.329-1.438,0.81
		c-0.046-0.04-0.099-0.088-0.155-0.146c-0.018-0.018-0.038-0.036-0.056-0.053c-0.07-0.065-7.064-6.657-9.8-16.865
		c-0.027-0.102-0.062-0.201-0.105-0.298c-0.054-0.12-5.351-12.127-3.593-20.3c0.014-0.062,0.023-0.126,0.031-0.188
		c0.09-0.771,0.772-7.447-2.129-10.741l-16.067-32.471c-0.375-0.966-4.454-11.672-4.454-20.163c0-0.361-0.098-0.714-0.282-1.024
		l-3.257-5.465l-0.752-9.344c-0.021-0.256-0.09-0.505-0.204-0.734c-0.045-0.089-4.473-9.004-5.213-15.785
		c-0.017-0.15-0.05-0.297-0.1-0.44l-0.902-2.593c-0.281-0.808-1.041-1.343-1.888-1.343c-0.04,0-0.08,0.001-0.12,0.003
		c-0.893,0.053-1.643,0.693-1.834,1.568c-0.031,0.139-3.058,13.928-4.062,18.615c-0.014,0.064-0.024,0.129-0.031,0.194
		c-0.057,0.498-1.361,12.252-0.112,20.645c0.721,8.563,1.248,18.266,0.893,19.839c-0.434,1.114-0.734,1.927-0.114,2.833
		c0.099,0.145,0.215,0.274,0.345,0.386c0.767,4.306,2.706,15.556,3.152,21.471c0.044,0.937,1.363,30.588-2.399,43.056
		c-0.016,0.053-0.029,0.105-0.04,0.159c-4.719,22.021-10.999,46.158-13.38,48.605c-0.41,0.28-0.702,0.704-0.817,1.19
		c-0.125,0.53-3.081,13.046-3.652,18.637c-0.003,0.037-0.006,0.074-0.008,0.11l-0.783,16.892c-0.175,0.987-1.094,6.557-0.32,10.919
		c0.116,0.786,2.64,17.966,2.681,23.123c-0.251,1.935-3.299,25.021-6.966,34.346c-0.03,0.078-0.057,0.158-0.077,0.24
		c-0.224,0.879-5.459,21.586-5.473,29.214c-0.025,0.804-0.179,9.694,4.799,13.596c2.348,3.631,7.547,11.361,10.216,12.93l9.03,6.51
		c0.322,1.348,0.451,2.838,0.264,3.312c-0.357,0.393-0.545,0.894-0.516,1.429c0.005,0.155,0.012,1.433-0.934,2.011h-0.564
		c-0.647,0-1.256,0.313-1.631,0.842c-0.349,0.491-0.457,1.112-0.297,1.69c-0.112,0.019-0.272,0.035-0.492,0.035
		c-0.313,0-0.684-0.034-1.099-0.1c-0.105-0.018-0.211-0.025-0.315-0.025c-0.393,0-0.78,0.116-1.11,0.337l-1.74,1.162
		c-0.055,0.007-0.12,0.013-0.194,0.013c-0.542,0-1.02-0.277-1.462-0.849c-0.391-0.504-0.987-0.791-1.6-0.791
		c-0.226,0-0.452,0.039-0.672,0.119c-0.817,0.301-1.348,1.077-1.309,1.948c0,0.133-0.041,0.325-0.085,0.414
		c-0.031,0.007-0.086,0.015-0.172,0.015h-3.005l-3.869-3.867c-0.368-0.369-0.866-0.578-1.387-0.586
		c-0.612-0.008-3.035-0.314-3.706-1.657c-0.277-0.555-0.797-0.95-1.407-1.068c-0.035-0.007-0.069-0.013-0.104-0.018
		c-0.533-0.329-2.509-1.807-7.902-8.013c-0.31-0.357-0.746-0.594-1.213-0.666c-0.192-0.03-4.719-0.775-5.191-4.476
		c-0.006-0.051-0.018-0.114-0.028-0.163c-0.008-0.042-0.836-4.255,1.397-10.652c0.1-0.286,0.133-0.591,0.098-0.892l-0.762-6.533
		c0.185-1.568,1.285-10.738,2.162-13.762c0.502-1.728,0.255-6.562-0.428-17.184c-0.442-6.876-1.106-17.204-0.598-19.167
		c0.235-0.366,0.346-0.803,0.309-1.245c-0.588-7.027-1.845-26.342-0.616-31.257c1.519-6.08,2.835-9.408,2.848-9.439
		c0.149-0.372,0.183-0.781,0.097-1.173c-0.621-2.828-1.181-6.375-1.083-7.438c0.229-0.438,0.292-0.953,0.16-1.445l-2.072-7.735
		l0.333-21.78c0.003-0.085,0.312-8.655,0.494-17.239c0.272-12.854,0.119-16.857-0.267-18.372v-19.371
		c0-1.084-0.864-1.971-1.948-1.999c-0.018-0.001-0.035-0.001-0.053-0.001c-1.06,0-1.941,0.831-1.996,1.896l-1.016,19.51
		c-0.051,1.011-1.223,24.768-0.004,34.937l-0.335,22.44c-0.253,2.539-1.045,9.294-1.8,11.39c-0.078,0.218-0.118,0.446-0.118,0.678
		v7.104c0,0.21,0.033,0.419,0.098,0.618c0.986,3.034,2.064,6.801,2.1,7.556c0,1.331-0.26,17.303-0.281,18.553l-1.572,16.849
		l-1.011,11.567c-0.167,1.212-2.148,16.234,0.37,25.01c0.515,3.312,1.31,8.802,1.31,9.826c0,0.333-0.102,0.591-0.314,1.097
		c-0.295,0.703-0.7,1.667-0.7,3.075v7.893c0,0.251,0.05,0.508,0.142,0.741c0.017,0.042,1.614,4.206-0.542,7.489
		c-1.656,1.398-9.551,8.163-11.979,11.965c-0.979,0.771-3.156,2.37-4.828,3.128c-0.247,0.112-0.471,0.276-0.653,0.476
		c-0.737,0.809-3.303,3.113-5.35,3.113c-0.5,0-1.258-0.122-2.068-1.18c-0.054-0.07-0.112-0.138-0.175-0.2l-0.733-0.731
		c-0.391-0.39-0.902-0.584-1.413-0.584c-0.511,0-1.022,0.194-1.413,0.584l-1.5,1.498c-0.057,0.01-0.116,0.018-0.174,0.021
		c-0.021-0.102-0.043-0.263-0.043-0.502c0-1.104-0.896-2-2-2h-1.473c0.206-0.666,0.045-1.402-0.438-1.935
		c-0.386-0.425-0.93-0.652-1.484-0.652c-0.267,0-0.536,0.053-0.79,0.161c-0.088,0.038-0.276,0.102-0.468,0.141
		c0-0.001,0-0.001,0-0.001v-1.916c0-0.555-0.161-1.087-0.566-1.466c-0.369-0.344-0.796-0.537-1.288-0.539l0.674-3.203l5.226-5.226
		c1.042-0.317,3.075-1.158,5.178-3.262c0.06-0.06,0.115-0.123,0.167-0.189l9.697-12.515c0.284-0.366,0.432-0.82,0.418-1.283
		l-0.093-3.182c1.057-1.747,3.072-6.664,1.655-17.43c-0.008-0.065-0.021-0.131-0.035-0.195l-4.476-19.134
		c-0.061-0.757-0.34-4.05-0.849-7.509c-0.828-5.631-1.712-8.055-2.728-9.183c-2.013-8.227-5.912-29.307-2.007-37.626
		c0.08-0.169,0.135-0.349,0.165-0.533c0.236-1.476,2.286-14.539,1.579-18.897c-0.017-0.104-1.666-10.518-1.666-16.711
		c0-0.214-0.034-0.426-0.101-0.629c-4.176-12.611-10.883-33.35-11.177-35.538c-0.007-0.16-0.033-0.319-0.078-0.474
		c-2.766-9.502-6.742-24.979-6.358-28.664c0.01-0.097,0.013-0.194,0.009-0.292l-1.431-33.693l0.364-0.409
		c0.23-0.259,0.39-0.574,0.462-0.913c0.048-0.225,1.171-5.544,1.171-8.986v-9.288c1.002-2.352,3.495-8.419,3.495-10.558
		c0-1.698-0.446-2.836-0.837-3.508c-0.069-1.323-0.072-5.517,2.049-10.863c2.688-6.771,2.498-10.48,2.394-11.376l-0.223-10.491
		c-0.003-0.146-0.022-0.292-0.057-0.434l-2.874-11.717v-16.671c0-0.814-0.493-1.547-1.247-1.853
		c-0.244-0.099-0.499-0.147-0.752-0.147c-0.53,0-1.05,0.21-1.434,0.605c-0.182,0.187-4.482,4.692-6.609,14.383
		c-1.895,8.628-7.09,14.988-7.141,15.049c-0.159,0.191-0.281,0.41-0.359,0.646l-0.563,1.692c-0.068,0.204-0.103,0.417-0.103,0.632
		v16.575c0,6.142-3.623,23.575-4.379,25.56c-0.945,2.48-2.83,11.369-2.945,15.038l-1.149,3.551c-0.047,0.145-0.077,0.294-0.09,0.446
		c-0.049,0.582-0.455,5.777,0.533,8.988c0.072,0.234,0.187,0.453,0.337,0.646c0.133,0.171,3.238,4.123,6.27,7.191
		c0.693,1.268,3.864,7.079,5.242,9.834c0.016,0.033,0.033,0.064,0.051,0.097c1.667,2.921,2.884,4.729,3.804,5.847
		c-0.386-0.018-1.007-0.131-1.937-0.517l-4.127-4.128c-0.382-0.382-0.893-0.586-1.415-0.586c-0.221,0-0.443,0.037-0.659,0.112
		c-0.725,0.253-1.241,0.899-1.327,1.662l-0.556,4.884l-2.792,14.409l-1.449,5.685c-0.004,0.015-0.452,1.483-2.005,2.005
		l-0.736,0.147c-0.985,0.196-1.672,1.095-1.603,2.097c0.07,1.037-0.134,2.572-0.584,3.299c-0.052-0.445-0.252-0.862-0.572-1.183
		l-0.733-0.733c-0.378-0.378-0.888-0.586-1.415-0.586c-0.106,0-0.213,0.009-0.32,0.025c-0.634,0.104-1.181,0.505-1.469,1.08
		c-0.091,0.182-0.224,0.402-0.364,0.608c-0.313-0.478-0.674-1.115-0.974-1.738l-0.413-3.403c-0.075-0.62-0.438-1.17-0.978-1.485
		c-0.31-0.181-0.659-0.272-1.009-0.272c-0.26,0-0.521,0.051-0.767,0.152c-0.375,0.155-0.858,0.31-1.16,0.376
		c-0.23-0.148-0.58-0.426-0.909-0.721l-4.09-15.392l-0.976-13.446l3.063-10.939c0.088-0.314,0.096-0.655,0.026-0.975
		c-0.004-0.021-0.439-2.059,0.089-3.999c0.048-0.174,0.071-0.353,0.071-0.532c0-0.092-0.03-9.282-0.183-18.478
		c-0.234-14.058-0.538-18.161-0.974-19.641c-0.186-2.457-1.363-19.301,0.533-26.783c0.025-0.101,0.043-0.204,0.053-0.309
		l1.102-12.008c0.628-1.609,3.81-9.761,4.534-11.726c0.353-0.958,1.03-3.866,2.197-8.924c1.341-5.809,3.009-13.038,3.891-15.431
		c1.429-3.878,1.891-4.772,1.89-4.772l0,0c0.173-0.302,0.264-0.645,0.264-0.994v-3.066c1.16-1.616,2.367-3.64,2.367-5.052
		l-0.002-0.211c-0.068-4.868,0.692-21.825,13.346-35.647c0.096-0.105,0.122-0.123,0.185-0.23c0.294-0.35,3.716-4.085,17.229-6.827
		c0.264-0.053,0.514-0.16,0.736-0.312l19.428-13.365l0.932-0.518c0.374-0.208,0.671-0.53,0.849-0.919
		c0.193-0.425,0.609-1.418,0.717-2.327c0.255-0.385,0.948-1.187,1.583-1.823c0.374-0.375,0.585-0.884,0.585-1.414V59.976
		c0-0.79-0.458-1.473-1.122-1.798c-0.181-0.123-2.036-1.523-2.036-7.11c0-1.104-0.896-2-2-2h-1.721
		c-0.965-0.859-3.791-4.188-3.384-13.472c0-0.019,0.001-0.054,0.002-0.073c0.007-0.418,0.142-0.97,0.279-1.172
		c0.076,0.001,0.102,0.007,0.13,0.007c0.018,0,0.037-0.002,0.071-0.011c0.248,0.054,0.569,0.453,0.766,1.236l0.054,0.23
		c0.224,0.912,1.041,1.525,1.941,1.525c0.149,0,0.301-0.017,0.453-0.052c1.066-0.248,1.736-1.306,1.502-2.375
		c-0.02-0.091-0.041-0.18-0.054-0.227c-0.162-0.701-1.557-6.936-1.106-11.263c0.167-0.762,1.495-6.55,4.315-10.829
		c2.856-4.333,10.095-6.971,10.166-6.997c0.092-0.033,0.191-0.077,0.277-0.123C238.049,5.453,241.44,3.681,246.988,3.681
		 M246.988,1.681c-6.203,0-9.922,2.03-9.922,2.03s-7.894,2.818-11.164,7.78s-4.623,11.614-4.623,11.614
		c-0.508,4.566,0.857,10.824,1.135,12.029c0.017,0.067,0.033,0.135,0.048,0.205c0,0-0.017-0.071-0.048-0.205
		c-0.644-2.57-2.235-2.792-2.765-2.792c-0.111,0-0.175,0.01-0.175,0.01c-2.254,0-2.254,3.157-2.254,3.157
		c-0.563,12.854,4.736,15.56,4.736,15.56h2.368c0,7.553,3.157,8.909,3.158,8.908v15.786c0,0-2.142,2.142-2.142,2.818
		c0,0.677-0.564,1.917-0.564,1.917l-1.015,0.564l-19.506,13.418c-15.56,3.157-18.492,7.667-18.492,7.667
		c-14.658,16.01-13.869,35.969-13.869,37.209s-2.367,4.397-2.367,4.397v3.721c0,0-0.452,0.79-2.03,5.074
		c-1.579,4.284-5.3,22.213-6.088,24.356c-0.79,2.142-4.623,11.951-4.623,11.951l-1.128,12.291
		c-2.143,8.456-0.564,27.737-0.564,27.737c1.016,1.015,1.127,37.661,1.127,37.661c-0.676,2.479-0.112,4.961-0.112,4.961
		l-3.157,11.275l1.015,13.981l4.284,16.123c0,0,1.691,1.692,2.481,1.692c0.789,0,2.142-0.564,2.142-0.564l0.451,3.721
		c0,0,1.691,3.721,2.819,3.721c1.127,0,2.255-2.255,2.255-2.255l0.733,0.733c0,1.935,1.461,2.092,1.938,2.092
		c0.093,0,0.148-0.006,0.148-0.006c2.818-0.789,2.48-5.752,2.48-5.752l0.845-0.169c2.763-0.845,3.44-3.439,3.44-3.439l1.466-5.75
		l2.819-14.545l0.564-4.962l4.397,4.397c1.351,0.606,2.391,0.835,3.193,0.835c2.477,0,2.671-2.188,2.671-2.188
		c-1.053,0-4.848-6.652-4.848-6.652c-1.579-3.157-5.413-10.147-5.413-10.147c-3.045-3.045-6.314-7.217-6.314-7.217
		c-0.902-2.933-0.452-8.231-0.452-8.231l1.241-3.834c0-3.158,1.917-12.291,2.819-14.659s4.51-19.957,4.51-26.271s0-16.575,0-16.575
		l0.563-1.692c0,0,5.525-6.652,7.555-15.898c2.03-9.246,6.089-13.417,6.089-13.417v16.913l2.931,11.952l0.225,10.599
		c0,0,0.564,3.383-2.255,10.487c-2.818,7.104-2.142,12.29-2.142,12.29s0.789,0.79,0.789,2.819c0,2.03-3.495,10.148-3.495,10.148
		s0,6.427,0,9.697c0,3.271-1.128,8.569-1.128,8.569l-0.902,1.015l1.466,34.502c-0.563,5.413,6.427,29.431,6.427,29.431
		c0,2.029,11.276,36.081,11.276,36.081c0,6.428,1.691,17.026,1.691,17.026c0.677,4.171-1.579,18.266-1.579,18.266
		c-5.187,11.05,2.03,39.577,2.03,39.577c2.254,1.127,3.382,15.899,3.382,15.899l4.51,19.28c1.691,12.854-1.691,16.575-1.691,16.575
		l0.113,3.834l-9.697,12.515c-2.48,2.481-4.792,2.876-4.792,2.876l-6.032,6.032l-0.902,4.286c0,1.915,1.917,1.915,1.917,1.915v1.916
		c0,1.638,0.879,2.032,1.727,2.032c0.786,0,1.544-0.34,1.544-0.34c-1.354,2.48,0.789,2.594,0.789,2.594h2.593
		c0,2.062,1.068,2.503,1.983,2.503c0.686,0,1.287-0.248,1.287-0.248l1.86-1.856l0.733,0.731c1.103,1.439,2.38,1.964,3.656,1.964
		c3.42,0,6.83-3.768,6.83-3.768c2.481-1.126,5.525-3.607,5.525-3.607c2.143-3.722,11.952-11.953,11.952-11.953
		c3.044-4.284,0.903-9.584,0.903-9.584v-7.893c0-1.918,1.014-2.593,1.014-4.172s-1.353-10.26-1.353-10.26
		c-2.537-8.621-0.338-24.355-0.338-24.355l1.015-11.614l1.578-16.914c0,0,0.282-17.251,0.282-18.661
		c0-1.409-2.198-8.174-2.198-8.174v-7.104c1.015-2.819,1.917-11.952,1.917-11.952l0.338-22.663c-1.239-10.034,0-34.729,0-34.729
		l1.015-19.507v19.732c1.015,1.013-0.226,35.178-0.226,35.178l-0.338,22.101l2.144,8.005c-0.846,0.848,0.901,8.796,0.901,8.796
		s-1.353,3.382-2.931,9.697c-1.579,6.314,0.563,31.909,0.563,31.909c-1.748,1.748,1.805,33.374,0.79,36.871
		c-1.015,3.496-2.255,14.32-2.255,14.32l0.789,6.765c-2.48,7.104-1.465,11.728-1.465,11.728c0.676,5.298,6.878,6.2,6.878,6.2
		c7.053,8.117,8.725,8.697,9.059,8.697c0.056,0,0.074-0.016,0.074-0.016c1.353,2.706,5.468,2.763,5.468,2.763l4.455,4.453h3.833
		c2.367,0,2.256-2.48,2.256-2.48c1.036,1.339,2.222,1.624,3.043,1.624c0.607,0,1.016-0.156,1.016-0.156l2.029-1.355
		c0.541,0.086,1.009,0.125,1.414,0.125c3.314,0,2.42-2.567,2.42-2.567h1.015c2.649-1.034,2.481-4.097,2.481-4.097
		c1.353-1.354,0-5.862,0-5.862l-9.698-6.991c-2.48-1.241-9.809-12.628-9.809-12.628c-4.624-3.27-4.285-12.178-4.285-12.178
		c0-7.44,5.412-28.753,5.412-28.753c3.946-10.035,7.104-34.954,7.104-34.954c0-5.298-2.706-23.566-2.706-23.566
		c-0.79-4.397,0.338-10.373,0.338-10.373l0.789-17.025c0.563-5.524,3.608-18.379,3.608-18.379
		c4.059-2.479,14.206-49.838,14.206-49.838c3.947-13.08,2.481-43.75,2.481-43.75c-0.564-7.555-3.495-23.453-3.495-23.453
		s-0.293,0.585-0.344,0.585c-0.032,0,0.035-0.242,0.344-1.036c0.789-2.029-0.79-20.747-0.79-20.747
		c-1.24-8.231,0.112-20.183,0.112-20.183c1.015-4.736,4.06-18.605,4.06-18.605l0.902,2.593c0.788,7.216,5.412,16.462,5.412,16.462
		l0.789,9.809l3.495,5.864c0,9.357,4.623,20.972,4.623,20.972l16.236,32.812c2.595,2.593,1.805,9.359,1.805,9.359
		c-1.916,8.907,3.722,21.536,3.722,21.536c2.931,10.937,10.372,17.814,10.372,17.814c0.676,0.677,1.252,0.902,1.72,0.902
		c0.936,0,1.438-0.902,1.438-0.902l2.255,3.271c1.169,1.56,2.049,2.094,2.706,2.094c1.433,0,1.805-2.545,1.805-2.545
		c1.756,2.081,2.91,2.821,3.666,2.821c1.865,0,1.295-4.513,1.295-4.513c0.572,0.973,1.05,1.335,1.444,1.335
		c1.16,0,1.601-3.14,1.601-3.14l-2.425-30.95c0-1.956,0.94-2.294,1.592-2.294c0.344,0,0.607,0.095,0.607,0.095
		c1.465,2.48,5.468,2.537,5.468,2.537c1.409,3.326,3.665,3.665,3.665,3.665c2.041,0.959,3.421,1.308,4.348,1.308
		c2.453,0,1.741-2.437,1.741-2.437l-3.383-4.397c-6.201-7.892-17.477-13.644-17.477-13.644c-8.231-0.902-8.908-6.652-8.908-6.652
		l-6.428-21.198c-1.014-2.48-1.353-20.296-1.353-20.296c0-5.524-12.628-29.091-12.628-29.091c0.79-13.981-3.382-26.272-3.382-26.272
		c-3.157-5.75-1.354-17.815-1.354-17.815c3.946-9.471-1.015-22.325-1.015-22.325c-5.073-16.688-14.658-18.379-14.658-18.379
		c-8.006-3.271-9.697-1.354-16.575-6.089s-16.237-9.02-16.237-9.02c-8.457-3.946-7.441-9.02-7.441-9.02
		c-0.451-6.088,0.902-15.109,0.902-15.109c-0.451-0.451,1.128-10.938,1.128-10.938c0,2.05,0.652,2.609,1.363,2.609
		c0.854,0,1.792-0.805,1.792-0.805l4.624-8.907c2.255-7.894-1.353-9.472-1.353-9.472c-1.58,0-4.06,1.579-4.06,1.579
		c1.578-7.329-0.902-16.688-0.902-16.688c-1.691-8.344-11.049-13.869-11.049-13.869S253.19,1.681,246.988,1.681L246.988,1.681z"/>
</g>
</svg>
